<svg width="329" height="235" viewBox="0 0 329 235" fill="none" xmlns="http://www.w3.org/2000/svg">
    <path
        d="M271.018 3.72014C268.925 6.78237 269.38 10.8972 271.959 13.5632C297.985 40.4655 314 77.1125 314 117.5C314 157.69 298.141 194.177 272.339 221.042C269.777 223.71 269.331 227.812 271.419 230.866C274.025 234.679 279.422 235.289 282.637 231.973C311.335 202.362 329 161.994 329 117.5C329 72.7896 311.163 32.2454 282.216 2.59516C278.998 -0.701433 273.618 -0.0831852 271.018 3.72014Z"
        fill="#DD0031"
    />
    <path
        d="M249.882 45.1046C247.595 42.3763 247.274 38.4545 249.282 35.5159C251.982 31.5667 257.627 31.0587 260.729 34.7006C279.607 56.8668 291 85.6029 291 117C291 148.397 279.607 177.133 260.729 199.299C257.627 202.941 251.982 202.433 249.282 198.484C247.274 195.546 247.595 191.624 249.882 188.895C266.184 169.442 276 144.367 276 117C276 89.6328 266.184 64.5582 249.882 45.1046Z"
        fill="#DD0031"
    />
    <path
        d="M66.6847 35.3943C69.7751 31.7129 75.4541 32.2047 78.1667 36.1726C80.1644 39.095 79.8594 42.9923 77.605 45.7216C61.6098 65.0871 52 89.9213 52 117C52 144.079 61.6098 168.913 77.605 188.278C79.8594 191.008 80.1644 194.905 78.1666 197.827C75.4541 201.795 69.775 202.287 66.6847 198.606C48.1576 176.535 37 148.071 37 117C37 85.9294 48.1576 57.4648 66.6847 35.3943Z"
        fill="#DD0031"
    />
    <path
        d="M45.558 3.86398C48.764 0.50925 54.194 1.10501 56.8128 4.93576C58.8893 7.97336 58.4613 12.0509 55.9313 14.7226C30.5605 41.5138 15 77.6897 15 117.5C15 157.113 30.4064 193.127 55.5542 219.878C58.0675 222.551 58.4864 226.616 56.4156 229.645C53.7904 233.485 48.3432 234.073 45.1416 230.699C17.1641 201.208 0 161.359 0 117.5C0 73.4241 17.3345 33.3969 45.558 3.86398Z"
        fill="#DD0031"
    />
    <path
        d="M164 201C210.392 201 248 163.392 248 117C248 70.6081 210.392 33 164 33C117.608 33 80 70.6081 80 117C80 163.392 117.608 201 164 201Z"
        fill="#DD0031"
    />
    <mask
        id="mask0_1_15"
        style="mask-type: alpha"
        maskUnits="userSpaceOnUse"
        x="0"
        y="0"
        width="329"
        height="235"
    >
        <path
            d="M271.018 3.72014C268.925 6.78237 269.38 10.8972 271.959 13.5632C297.985 40.4655 314 77.1125 314 117.5C314 157.69 298.141 194.177 272.339 221.042C269.777 223.71 269.331 227.812 271.419 230.866C274.025 234.679 279.422 235.289 282.637 231.973C311.335 202.362 329 161.994 329 117.5C329 72.7896 311.163 32.2454 282.216 2.59516C278.998 -0.701433 273.618 -0.0831852 271.018 3.72014Z"
            fill="#DD0031"
        />
        <path
            d="M249.882 45.1046C247.595 42.3763 247.274 38.4545 249.282 35.5159C251.982 31.5667 257.627 31.0587 260.729 34.7006C279.607 56.8668 291 85.6029 291 117C291 148.397 279.607 177.133 260.729 199.299C257.627 202.941 251.982 202.433 249.282 198.484C247.274 195.546 247.595 191.624 249.882 188.895C266.184 169.442 276 144.367 276 117C276 89.6328 266.184 64.5582 249.882 45.1046Z"
            fill="#DD0031"
        />
        <path
            d="M66.6847 35.3943C69.7751 31.7129 75.4541 32.2047 78.1667 36.1726C80.1644 39.095 79.8594 42.9923 77.605 45.7216C61.6098 65.0871 52 89.9213 52 117C52 144.079 61.6098 168.913 77.605 188.278C79.8594 191.008 80.1644 194.905 78.1666 197.827C75.4541 201.795 69.775 202.287 66.6847 198.606C48.1576 176.535 37 148.071 37 117C37 85.9294 48.1576 57.4648 66.6847 35.3943Z"
            fill="#DD0031"
        />
        <path
            d="M45.558 3.86398C48.764 0.50925 54.194 1.10501 56.8128 4.93576C58.8893 7.97336 58.4613 12.0509 55.9313 14.7226C30.5605 41.5138 15 77.6897 15 117.5C15 157.113 30.4064 193.127 55.5542 219.878C58.0675 222.551 58.4864 226.616 56.4156 229.645C53.7904 233.485 48.3432 234.073 45.1416 230.699C17.1641 201.208 0 161.359 0 117.5C0 73.4241 17.3345 33.3969 45.558 3.86398Z"
            fill="#DD0031"
        />
        <path
            d="M164 201C210.392 201 248 163.392 248 117C248 70.6081 210.392 33 164 33C117.608 33 80 70.6081 80 117C80 163.392 117.608 201 164 201Z"
            fill="#DD0031"
        />
    </mask>
    <g mask="url(#mask0_1_15)">
        <rect x="164" y="-15" width="181" height="263" fill="#C3002F" />
    </g>
    <path
        d="M142.011 158.68L145.971 148.296L97.6592 125.504V114.504L137.083 95.936V106.232L111.563 117.936C110.449 118.464 109.334 118.904 108.219 119.256C107.105 119.608 106.254 119.843 105.667 119.96C106.254 120.077 107.105 120.312 108.219 120.664C109.334 121.016 110.449 121.456 111.563 121.984L149.139 139.496L172.811 75.96H184.251L178.707 90.656L228.603 114.504V125.504L189.179 144.072V133.952L214.699 122.16C215.873 121.632 217.017 121.192 218.131 120.84C219.305 120.488 220.214 120.224 220.859 120.048C220.214 119.989 219.305 119.784 218.131 119.432C216.958 119.08 215.814 118.64 214.699 118.112L175.451 99.456L153.451 158.68H142.011Z"
        fill="white"
    />
</svg>
